{"title":"Baby Blues 2008 DVDRip Xvid BigPerm LKRG","uid":6177797,"size":1059836520,"categoryP":"video","categoryS":"movies","magnet":"?xt=urn:btih:4ea0e59c39876d662d83b3822771a34403fcbbdc&amp;dn=Baby+Blues+2008+DVDRip+Xvid+BigPerm+LKRG&amp;tr=udp%3A%2F%2Ftracker.openbittorrent.com%3A80&amp;tr=udp%3A%2F%2Fopen.demonii.com%3A1337&amp;tr=udp%3A%2F%2Ftracker.coppersurfer.tk%3A6969&amp;tr=udp%3A%2F%2Fexodus.desync.com%3A6969","seeders":0,"leechers":1,"uploader":"hiest","files":-1,"time":1297833789,"description":"\n ######           ######                       \n #     # #  ####  #     # ###### #####  #    # \n #     # # #    # #     # #      #    # ##  ## \n ######  # #      ######  #####  #    # # ## # \n #     # # #  ### #       #      #####  #    # \n #     # # #    # #       #      #   #  #    # \n ######  #  ####  #       ###### #    # #    # \n                                               \n\n\nPlot\n\nOn a secluded family farm, a mother suffers a psychotic break due to postpartum\ndepression, forcing the eldest son to protect his sibling from the mother they have\nalways known and loved.\n\n\nGeneral\nComplete name : Baby Blues 2008 DVDRip Xvid BigPerm LKRGBB_LKRG.avi\nFormat : AVI\nFormat/Info : Audio Video Interleave\nFile size : 1 011 MiB\nDuration : 1h 16mn\nOverall bit rate : 1 837 Kbps\n\nVideo\nID : 0\nFormat : MPEG-4 Visual\nFormat profile : Advanced Simple@L5\nFormat settings, BVOP : Yes\nFormat settings, QPel : No\nFormat settings, GMC : No warppoints\nFormat settings, Matrix : Default (H.263)\nCodec ID : XVID\nCodec ID/Hint : XviD\nDuration : 1h 16mn\nBit rate : 1 384 Kbps\nWidth : 704 pixels\nHeight : 396 pixels\nDisplay aspect ratio : 16:9\nFrame rate : 23.976 fps\nColor space : YUV\nChroma subsampling : 4:2:0\nBit depth : 8 bits\nScan type : Progressive\nCompression mode : Lossy\nBits/(Pixel*Frame) : 0.207\nStream size : 761 MiB (75%)\nWriting library : XviD 1.2.1 (UTC 2008-12-04)\n\nAudio\nID : 1\nFormat : AC-3\nFormat/Info : Audio Coding 3\nMode extension : CM (complete main)\nCodec ID : 2000\nDuration : 1h 16mn\nBit rate mode : Constant\nBit rate : 448 Kbps\nChannel(s) : 6 channels\nChannel positions : Front: L C R, Side: L R, LFE\nSampling rate : 48.0 KHz\nBit depth : 16 bits\nCompression mode : Lossy\nVideo delay : 42ms\nStream size : 247 MiB (24%)\nAlignment : Split accross interleaves\nInterleave, duration : 500 ms (11.99 video frames)\nInterleave, preload duration : 500 ms\nLanguage : English\n &lt;a href=&quot;\nhttp://www.imdb.com/title/tt0972359/&quot; rel=&quot;nofollow&quot; target=&quot;_NEW&quot;&gt;\nhttp://www.imdb.com/title/tt0972359/&lt;/a&gt;\n\n\n\n\n\n================================== &lt;a href=&quot;\nhttp://thepiratebay.se/user/hiest&quot; rel=&quot;nofollow&quot; target=&quot;_NEW&quot;&gt;\nhttp://thepiratebay.se/user/hiest&lt;/a&gt;\n==================================\n\n\n\n\n\nScreen Shots:\n &lt;a href=&quot;\nhttp://leetleech.org/images/62458173402856908322.png&quot; rel=&quot;nofollow&quot; target=&quot;_NEW&quot;&gt;\nhttp://leetleech.org/images/62458173402856908322.png&lt;/a&gt;\n &lt;a href=&quot;\nhttp://leetleech.org/images/88170500405865477956.png&quot; rel=&quot;nofollow&quot; target=&quot;_NEW&quot;&gt;\nhttp://leetleech.org/images/88170500405865477956.png&lt;/a&gt;\n &lt;a href=&quot;\nhttp://leetleech.org/images/18530143239880737176.png&quot; rel=&quot;nofollow&quot; target=&quot;_NEW&quot;&gt;\nhttp://leetleech.org/images/18530143239880737176.png&lt;/a&gt;\n &lt;a href=&quot;\nhttp://leetleech.org/images/91715893815810702323.png&quot; rel=&quot;nofollow&quot; target=&quot;_NEW&quot;&gt;\nhttp://leetleech.org/images/91715893815810702323.png&lt;/a&gt;\n &lt;a href=&quot;\nhttp://leetleech.org/images/57159636003403100886.png&quot; rel=&quot;nofollow&quot; target=&quot;_NEW&quot;&gt;\nhttp://leetleech.org/images/57159636003403100886.png&lt;/a&gt;\n\n\n ######           ######                       \n #     # #  ####  #     # ###### #####  #    # \n #     # # #    # #     # #      #    # ##  ## \n ######  # #      ######  #####  #    # # ## # \n #     # # #  ### #       #      #####  #    # \n #     # # #    # #       #      #   #  #    # \n ######  #  ####  #       ###### #    # #    # \n                                               \n\n","torrent":{"xt":"urn:btih:4ea0e59c39876d662d83b3822771a34403fcbbdc","amp;dn":"Baby+Blues+2008+DVDRip+Xvid+BigPerm+LKRG","amp;tr":["udp%3A%2F%2Ftracker.openbittorrent.com%3A80","udp%3A%2F%2Fopen.demonii.com%3A1337","udp%3A%2F%2Ftracker.coppersurfer.tk%3A6969","udp%3A%2F%2Fexodus.desync.com%3A6969"],"infoHash":"4ea0e59c39876d662d83b3822771a34403fcbbdc","infoHashBuffer":{"type":"Buffer","data":[78,160,229,156,57,135,109,102,45,131,179,130,39,113,163,68,3,252,187,220]},"announce":[],"urlList":[]}}